<svg width="640" height="640" viewBox="0 0 640 640" fill="none" xmlns="http://www.w3.org/2000/svg">
<path opacity="0.4" d="M80.5 218.499V421.499C80.5 444.399 92.7 465.499 112.5 476.899L288.3 578.499C298.2 584.199 309.3 587.099 320.3 587.099V356.999C320.3 334.099 332.5 312.999 352.3 301.599C418.7 263.199 485.2 224.899 551.6 186.599C546.1 176.999 538.1 168.899 528.2 163.199L352.3 61.4992C332.5 50.0992 308.1 50.0992 288.3 61.4992L112.5 162.999C92.7 174.399 80.5 195.599 80.5 218.399V218.499Z" fill="white"/>
<path d="M551.6 186.5C557.1 196.1 560.2 207.1 560.2 218.5V421.5C560.2 444.4 548 465.5 528.2 476.9L352.3 578.5C342.4 584.2 331.3 587.1 320.3 587.1V357C320.3 334.1 332.5 313 352.3 301.6L551.6 186.6V186.5Z" fill="white"/>
</svg>
