<svg width="933" height="329" viewBox="0 0 933 329" fill="none" xmlns="http://www.w3.org/2000/svg">
<path d="M398.731 34.1621L442.012 34.1717C442.762 54.7869 442.1 79.9522 441.987 100.866C455.51 82.3554 472.613 79.2176 493.761 77.898C550.338 74.3674 589.521 102.881 589.913 161.707C590.086 187.836 587.147 211.049 568.451 231.134C546.101 253.151 514.963 256.833 484.809 253.859C466.741 252.078 453.483 246.145 442.072 231.548C442.163 238.195 442.146 244.844 442.02 251.491C428.035 251.99 412.937 251.407 398.655 251.733C398.225 235.796 398.49 218.904 398.491 202.908L398.508 118.316L398.479 64.2003C398.473 55.4727 398.084 42.5969 398.731 34.1621ZM493.515 212.863C524.753 212.202 546.916 199.202 546.356 164.465C545.859 133.826 524.074 119.515 495.264 119.63C463.616 120.155 441.319 133.359 442.178 168.42C442.971 200.766 464.591 211.538 493.515 212.863Z" fill="white"/>
<path d="M11.4717 34.3274C22.955 33.5705 42.7533 34.0441 54.6427 34.2269C55.1703 55.2968 54.7238 78.9816 54.6468 100.16C68.897 82 87.0713 78.2006 109.072 77.8219C131.569 77.4346 153.173 83.6405 169.548 99.694C195.643 125.277 192.071 158.26 192.052 191.769L192.106 251.539C177.649 251.67 163.345 251.352 148.83 251.642C148.251 245.244 148.561 234.429 148.561 227.764L148.581 184.323C148.635 167.504 151.41 145.485 138.761 132.815C121.316 115.34 83.209 115.148 65.1677 131.936C57.6563 138.925 54.8555 149.627 54.7329 159.598C54.4027 190.205 55.0186 220.861 54.6218 251.461C40.2148 251.661 25.8303 251.404 11.4202 251.601C11.0707 237.585 11.2853 222.881 11.2873 208.827L11.2903 135.358L11.282 71.9505C11.281 59.6649 11.0421 46.5323 11.4717 34.3274Z" fill="white"/>
<path d="M733.977 80.7191L778.809 80.7524C781.629 88.9933 784.166 97.5469 786.617 105.92C800.881 154.641 816.776 203.069 830.862 251.819C840.338 218.748 851.221 184.679 861.244 151.651L874.924 106.588C877.457 98.2486 880.104 88.8174 882.933 80.6927C897.488 80.8909 913.839 80.2315 928.052 80.8627C926.33 87.7452 923.465 96.4018 921.365 103.326L908.818 144.553L874.651 256.923L863.859 292.519C861.822 299.243 859.604 307.342 857.153 313.786C852.952 314.134 845.618 313.915 841.231 313.915C831.55 313.972 821.864 313.911 812.184 313.731C813.66 307.146 816.867 297.501 818.885 290.904L830.98 251.49C816.844 251.997 799.865 251.575 785.515 251.583L750.828 137.256L740.213 102.44C738.241 95.9625 735.334 87.1966 733.977 80.7191Z" fill="white"/>
<path d="M201.467 80.77C215.782 80.5289 230.157 80.8962 244.592 80.5918L244.567 147.678C244.566 157.66 243.847 172.798 245.411 182.364C251.048 216.846 305.77 220.965 327.498 200.698C332.299 196.266 335.66 190.494 337.145 184.13C339.288 175.058 338.255 158.408 338.429 148.43C338.819 126.179 337.819 102.864 338.631 80.6884C352.752 80.8479 367.663 80.3466 381.636 80.826C382.304 100.12 381.759 122.421 381.753 141.944L381.727 251.536C367.984 251.911 352.476 251.584 338.58 251.631C338.327 245.321 338.432 238.669 338.436 232.33C322.216 253.017 297.836 256.08 273.111 254.283C252.264 252.768 232.032 243.633 218.591 227.308C211.414 218.523 206.356 208.203 203.811 197.148C200.483 182.875 200.992 170.003 201.033 155.481L201.032 124.368C201.021 112.803 200.422 91.5167 201.467 80.77Z" fill="white"/>
<path d="M682.967 16.1514C695.449 15.7155 716.656 15.6186 728.993 16.2525C729.476 25.9174 729.485 45.8076 728.911 55.0802C717.604 55.4183 705.581 54.8528 694.21 55.0752C688.261 55.1363 682.571 54.7544 676.657 55.6129C663.013 57.5951 663.997 69.9463 663.063 80.7573C685.099 80.904 707.139 80.873 729.175 80.6638C729.457 91.1107 729.526 107.948 728.934 118.05C713.672 118.544 697.946 117.815 682.634 118.13C676.484 118.257 669.427 118.411 663.332 118.031L663.268 203.004L663.273 251.547C650.285 252.077 633.237 251.592 619.907 251.637C619.461 246.58 619.652 239.807 619.661 234.617L619.707 207.758L619.584 118.077C612.978 118.315 603.931 118.26 597.357 118.016C597.175 106.338 597.047 92.5502 597.498 80.96C603.589 80.5303 613.539 80.7755 619.953 80.6716C619.871 34.3135 637.269 17.5985 682.967 16.1514Z" fill="white"/>
</svg>
