<svg width="595" height="220" viewBox="0 0 595 220" fill="none" xmlns="http://www.w3.org/2000/svg">
<path d="M277.207 36.3286C284.739 36.3025 293.584 36.0581 301.014 36.405C301.642 46.2428 301.131 56.256 301.296 66.1221C301.343 68.8973 301.351 71.8758 301.142 74.6249C310.004 64.4837 316.314 62.722 329.245 61.6501C359.031 59.1813 384.178 72.3584 385.903 104.731C386.861 122.753 386.231 135.571 373.872 149.878C372.069 151.503 370.051 153.35 368.062 154.739C356.035 163.144 336.728 164.615 322.607 162.258C313.611 160.756 306.369 157.316 301.113 149.626C301.488 154 301.357 156.923 301.119 161.298C298.718 161.468 294.806 161.346 292.245 161.348C286.905 161.398 281.565 161.359 276.226 161.233C275.901 152.661 276.137 142.694 276.138 134.034L276.139 84.2471L276.115 53.565C276.11 48.3125 276.058 42.8537 276.257 37.5903C276.284 36.8749 276.704 36.701 277.207 36.3286ZM336.765 138.811C342.968 138.678 350.506 135.352 354.774 130.911C363.953 121.37 363.587 101.883 353.793 92.8501C347.074 86.6506 337.918 85.276 329.131 85.5738C327.987 85.6095 326.843 85.6603 325.699 85.7265C307.696 88.0519 299.917 99.6564 301.659 117.281C302.266 123.432 305.106 129.309 310.092 133.071C318.469 139.243 326.901 139.461 336.765 138.811Z" fill="black"/>
<path d="M125.896 86.2276C125.433 81.3897 125.527 39.2678 126.481 36.7152C128.213 35.9408 148.846 36.2812 152.263 36.2705C152.746 40.1652 152.499 49.8411 152.495 54.1654L152.467 88.27L152.487 136.525C152.491 144.239 152.517 152.07 152.484 159.792C152.48 160.689 152.093 160.932 151.53 161.424C143.127 161.102 134.406 161.41 125.896 161.168C125.51 156.46 125.744 148.17 125.748 143.258L125.801 109.941C119.773 109.511 112.527 109.685 106.419 109.683L74.3606 109.692C69.608 109.697 64.3383 109.877 59.6583 109.751C59.2724 126.867 59.8035 144.197 59.4475 161.349C52.3264 161.686 40.2549 161.321 32.934 161.248C32.4319 156.148 32.6999 146.196 32.7011 140.768L32.7165 103.235L32.6999 60.3852C32.6991 53.535 32.4127 43.0031 32.9842 36.3283L59.3154 36.305C59.778 41.545 59.5605 49.0976 59.5584 54.5772L59.5947 86.454C81.466 85.9156 103.925 86.8011 125.896 86.2276Z" fill="black"/>
<path d="M182.417 63.1225C183.987 63.0836 185.72 63.1336 187.303 63.1463C187.633 66.9267 187.402 74.2929 187.408 78.3185L187.501 106.281C187.508 111.13 187.114 118.018 188.094 122.446C191.096 134.34 202.059 138.839 213.054 139.107C225.81 139.418 238.724 135.068 241.089 121.116C242.175 114.705 241.694 106.005 241.687 99.2792C241.611 87.3292 241.655 75.3784 241.819 63.4293C246.935 62.8137 260.639 63.1367 266.333 63.126C265.927 80.3049 266.305 98.9506 266.313 116.24L266.318 144.193C266.318 147.241 266.555 159.041 265.835 161.253C264.249 161.784 245.253 161.39 241.865 161.387C241.627 157.81 241.618 153.58 241.517 149.951C233.457 161.631 221.483 162.999 208.388 163.149C186.859 163.394 168.186 150.452 163.611 128.963C161.675 119.867 162.365 109.549 162.363 100.195C162.321 87.874 162.362 75.5528 162.486 63.2325C168.997 63.0758 175.876 63.1611 182.417 63.1225Z" fill="black"/>
<path d="M465.355 25.6831C465.633 25.5298 465.956 25.6091 466.29 25.6396C466.949 26.52 466.534 43.6118 466.595 45.8576C466.69 49.4842 461.414 48.2747 458.975 48.2861C451.774 48.5188 443.725 47.5169 436.625 48.5348C428.567 49.6896 429.087 57.5426 428.509 63.1941C440.658 62.6998 454.021 63.4449 466.592 63.0014C466.969 68.8746 466.632 78.5659 466.641 84.7454C458.65 84.5443 450.325 84.7733 442.299 84.6714C439.633 84.6377 431.204 84.4981 428.994 84.8821C428.219 86.1606 428.628 153.133 428.547 160.434C427.975 162.228 423.088 161.563 421.34 161.535C415.497 161.44 409.571 161.73 403.743 161.4C403.47 158.896 403.54 154.593 403.531 151.939L403.502 136.318L403.525 84.6487L390.583 84.7248L390.58 84.6203C390.293 78.4574 390.447 70.7539 390.833 64.5643C390.972 62.3692 401.586 63.1584 403.818 63.1863C403.731 54.0293 405.305 41.9664 411.862 35.1807C421.055 25.67 433.939 25.8372 446.135 25.8542C452.416 25.863 459.231 25.9793 465.355 25.6831Z" fill="black"/>
<path d="M529.176 148.961C534.986 132.457 539.055 114.546 544.781 97.9607C546.195 93.8658 554.494 64.2459 555.6 63.5801C558.26 62.88 576.829 63.1813 580.79 63.1964C579.571 69.7865 578.133 73.5172 576.124 79.8821L570.496 98.2252L552.563 157.894C548.582 170.895 544.153 184.161 540.701 197.295C531.984 197.355 523.267 197.363 514.55 197.319C516.617 189.306 519.547 181.627 521.754 173.664C523.252 168.255 525.329 162.791 526.487 157.319C527.379 155.183 528.523 151.237 529.176 148.961Z" fill="black"/>
<path d="M490.454 63.1262C496.343 63.0507 495.307 63.3305 497.081 68.7373C498.239 72.2681 499.128 75.9146 500.205 79.4634L510.421 113.405C515.154 129.407 520.529 145.354 525.163 161.4L504.018 161.419L499.523 161.336C497.014 156.243 494.325 145.146 492.493 139.511C490.396 133.064 488.608 126.586 486.682 120.13L475.204 82.3701C473.107 75.3765 471.441 70.5621 469.614 63.1932C476.56 63.2167 483.509 63.1944 490.454 63.1262Z" fill="black"/>
</svg>
