<svg width="208" height="216" viewBox="0 0 208 216" fill="none" xmlns="http://www.w3.org/2000/svg">
<path d="M23.9971 103.968C24.3208 97.4615 23.9903 88.08 23.9876 81.252L23.9901 34.8138L23.9538 20.3565C23.9426 17.1485 23.7468 13.7752 24.2061 10.6122C25.9081 -1.10825 36.1866 0.106249 44.6788 0.103249L60.7903 0.1045L119.292 0.1105L137.015 0.122997C139.992 0.131497 144.737 0.262497 147.61 0.0222473L147.862 0C151.04 0.52675 153.442 4.83 155.35 7.37475L163.423 18.154C170.928 28.182 178.5 38.1963 185.965 48.2558C186.811 49.3965 187.607 50.5485 187.889 51.9532C187.619 54.4755 187.753 58.8628 187.755 61.5498L187.777 78.8555C187.783 94.8958 187.463 111.972 187.827 127.922C193.45 127.869 199.939 127.163 204.189 131.401C206.879 133.99 207.779 137.653 207.769 141.301C207.702 159.453 207.724 177.668 207.754 195.815C207.764 201.739 208.677 207.948 204.107 212.384C200.892 215.501 197.702 215.791 193.519 215.821L69.0628 215.804L30.3988 215.821C23.6723 215.831 16.3991 216.089 9.86306 215.581C3.97831 215.126 -0.218687 208.66 0.0405631 203.129C0.163063 200.52 -0.00368752 197.613 6.24837e-05 194.986L0.0263152 177.627L0.0570617 118.564C-0.563938 102.084 12.4123 103.912 23.9971 103.968Z" fill="white"/>
<path d="M23.9971 103.968C24.0213 111.582 24.1983 120.084 23.9773 127.637C25.7706 128.448 175.84 127.708 187.827 127.922C193.45 127.869 199.939 127.163 204.189 131.401C206.879 133.99 207.779 137.653 207.769 141.301C207.702 159.453 207.724 177.668 207.754 195.814C207.764 201.739 208.677 207.947 204.107 212.384C200.892 215.501 197.702 215.791 193.519 215.821L69.0628 215.804L30.3988 215.821C23.6723 215.831 16.3991 216.089 9.86306 215.581C3.97831 215.126 -0.218687 208.659 0.0405631 203.129C0.163063 200.52 -0.00368752 197.613 6.24837e-05 194.986L0.0263152 177.627L0.0570617 118.564C-0.563938 102.083 12.4123 103.911 23.9971 103.968Z" fill="#00B84F"/>
<path d="M23.9966 103.968C24.0209 111.582 24.1979 120.084 23.9769 127.637C17.2634 127.335 9.34986 129.333 4.30511 125.167C2.57886 123.741 0.295109 120.825 0.0566095 118.564C-0.564391 102.083 12.4119 103.911 23.9966 103.968Z" fill="#00833D"/>
<path d="M100.112 147.965C106.234 147.809 113.537 146.976 117.955 152.156C120.871 155.575 121.005 159.064 120.698 163.303C120.058 164.233 117.968 166.419 116.742 166.222C112.447 165.967 113.21 158.021 111.257 156.566C109.789 155.472 98.3376 155.226 96.9654 157.149C95.1506 159.692 95.2086 162.876 97.8186 164.607C105.503 169.704 119.757 169.689 120.767 181.298C121.509 189.503 117.094 195.132 108.841 195.798C99.4541 196.285 89.8021 196.643 88.0204 184.712C86.7204 176.007 95.7596 175.835 96.0821 183.093C96.1264 184.091 96.1224 186.3 97.0806 186.864C100.195 188.697 105.037 187.647 108.575 187.863C113.135 188.151 114.59 181.505 111.161 179.209C105.516 175.667 97.7969 174.625 92.3881 170.544C87.0214 166.494 86.5316 157.349 90.6441 152.271C93.1434 149.23 96.3104 148.296 100.112 147.965Z" fill="white"/>
<path d="M61.6882 147.971C70.3174 147.213 78.9334 152.045 81.5962 160.751C82.1664 162.616 80.8404 165.772 78.5997 165.884C73.9282 166.116 73.5989 160.165 70.4177 157.921C65.5262 154.427 56.6987 155.278 52.8237 160.031C49.0647 164.456 49.8404 171.297 50.0139 176.737C50.3669 187.806 66.0359 191.999 72.4854 183.571C74.2589 180.743 75.6832 175.839 80.1899 178.716C83.8814 181.072 80.4707 186.329 78.5557 188.727C75.4319 192.693 70.8334 195.222 65.8114 195.736C53.7334 197.019 43.3407 190.029 42.1257 177.378C40.7027 162.562 44.2849 149.432 61.6882 147.971Z" fill="white"/>
<path d="M145.659 181.199C146.879 178.803 148.218 175.211 149.228 172.685L154.971 158.212C155.742 156.271 156.799 153.939 157.475 151.999C159.214 147.008 163.717 146.214 165.912 151.423C165.281 154.429 163.046 159.538 161.838 162.54C157.554 172.834 153.748 183.382 149.275 193.58C147.957 196.585 143.728 196.66 142.173 193.155C140.32 188.98 138.709 184.827 137.026 180.582C133.644 171.891 130.166 163.237 126.594 154.623C125.19 151.294 125.903 149.148 129.328 147.9C131.622 148.039 132.571 148.613 133.58 150.783C135.474 155.124 137.314 159.614 138.986 164.051C141.105 169.674 143.869 175.492 145.659 181.199Z" fill="white"/>
<path d="M147.862 0C151.039 0.52675 153.442 4.83 155.349 7.37475L163.422 18.154C170.928 28.182 178.499 38.1963 185.964 48.2558C186.811 49.3965 187.606 50.5485 187.888 51.9532C183.952 52.2505 179.14 52.1425 175.093 52.08C164.39 51.9148 147.554 55.1268 147.801 38.9303C147.994 26.2355 147.272 12.7522 147.862 0Z" fill="#D2D2D2"/>
<path d="M58.6776 72.1619C63.8923 71.8554 70.6998 72.0487 76.0071 72.0507L106.479 72.0522L135.979 72.0484C141.357 72.0432 147.941 71.8479 153.209 72.1764C156.676 74.4299 156.886 78.2969 152.929 79.8274C150.705 80.2267 145.013 80.0952 142.569 80.0959L123.633 80.0957L84.0756 80.1037C75.6581 80.1099 66.7686 80.4764 58.4566 79.6837C55.6168 79.4127 54.6303 74.1624 58.6776 72.1619Z" fill="#00B84F"/>
<path d="M64.4965 95.987L123.602 95.9972L141.861 95.9833C145.468 95.9793 149.787 95.8398 153.315 96.1793C155.265 97.4655 157.38 100.044 155.155 102.183C153.008 104.247 150.606 104.016 147.863 104.024L89.305 104.013L71.4625 104.034C67.9223 104.043 64.629 104.008 60.8193 103.959C56.6238 103.906 54.5335 100.823 57.032 97.2035C58.1078 95.6447 62.5458 95.9775 64.4965 95.987Z" fill="#00B84F"/>
<path d="M58.6944 48.1784C63.5294 47.8897 110.752 47.5732 113.323 48.3637C114.194 48.6317 114.921 49.3237 115.361 50.1082C115.843 50.9687 116.078 52.0217 115.753 52.9787C115.239 54.4919 114.381 55.2647 112.951 55.9067C109.234 56.4322 60.7472 56.3462 58.8127 55.8234C57.7747 55.5534 56.9009 54.8534 56.4104 53.8994C55.1239 51.3947 56.4007 49.3459 58.6944 48.1784Z" fill="#00B84F"/>
</svg>
