<svg xmlns="http://www.w3.org/2000/svg" width="1280" height="680" viewBox="0 0 1280 680" fill="none">
  <defs>
    <clipPath id="round"><rect width="1280" height="680" rx="12"/></clipPath>
    <style>
      @import url('https://fonts.googleapis.com/css2?family=Inter:wght@400;500;600;700&amp;display=swap');
      text, tspan { font-family: 'Inter', system-ui, -apple-system, sans-serif; }
    </style>
  </defs>

  <!-- Background -->
  <rect width="1280" height="680" rx="12" fill="#ffffff"/>

  <!-- Card container with border -->
  <rect x="40" y="20" width="1200" height="640" rx="10" fill="#ffffff" stroke="#e4e4e7" stroke-width="1"/>

  <!-- ── Tabs bar ── -->
  <rect x="41" y="21" width="1198" height="48" rx="10" fill="#ffffff"/>
  <line x1="41" y1="68" x2="1239" y2="68" stroke="#e4e4e7" stroke-width="1"/>
  <!-- Tab: Products (active) -->
  <text x="180" y="49" text-anchor="middle" font-size="13" font-weight="600" fill="#09090b">Products</text>
  <line x1="120" y1="67" x2="240" y2="67" stroke="#09090b" stroke-width="2"/>
  <!-- Tab: Customers -->
  <text x="400" y="49" text-anchor="middle" font-size="13" font-weight="500" fill="#a1a1aa">Customers</text>
  <!-- Tab: Orders -->
  <text x="600" y="49" text-anchor="middle" font-size="13" font-weight="500" fill="#a1a1aa">Orders</text>

  <!-- ── Sync Banner (completed state) ── -->
  <rect x="60" y="86" width="1160" height="52" rx="8" fill="#f0fdf4" stroke="#bbf7d0" stroke-width="1"/>
  <!-- Green check icon -->
  <circle cx="88" cy="112" r="10" fill="none" stroke="#16a34a" stroke-width="1.5"/>
  <polyline points="83,112 87,116 93,108" fill="none" stroke="#16a34a" stroke-width="1.8" stroke-linecap="round" stroke-linejoin="round"/>
  <!-- Banner text -->
  <text x="108" y="108" font-size="13" font-weight="600" fill="#09090b">Sync completed</text>
  <text x="230" y="108" font-size="13" font-weight="400" fill="#71717a">— 4 created</text>
  <!-- Clock + date -->
  <text x="108" y="124" font-size="11" fill="#71717a">&#x1F552;  04/04 09:32</text>
  <!-- Fetch button -->
  <rect x="1060" y="97" width="140" height="32" rx="6" fill="#ffffff" stroke="#e4e4e7" stroke-width="1"/>
  <text x="1130" y="117" text-anchor="middle" font-size="12" font-weight="500" fill="#09090b">Fetch products</text>

  <!-- ── Product Selection Table ── -->
  <rect x="60" y="156" width="1160" height="380" rx="8" fill="#ffffff" stroke="#e4e4e7" stroke-width="1"/>

  <!-- Table Header -->
  <rect x="61" y="157" width="1158" height="36" rx="7" fill="#fafafa"/>
  <!-- Checkbox header (indeterminate) -->
  <rect x="82" y="169" width="14" height="14" rx="3" fill="none" stroke="#d4d4d8" stroke-width="1.5"/>
  <line x1="85" y1="176" x2="89" y2="180" stroke="#71717a" stroke-width="1.5" stroke-linecap="round"/>
  <line x1="89" y1="180" x2="96" y2="170" stroke="#71717a" stroke-width="1.5" stroke-linecap="round"/>
  <!-- Column headers -->
  <text x="120" y="180" font-size="10" font-weight="500" fill="#a1a1aa" letter-spacing="0.8">PRODUCT</text>
  <text x="700" y="180" font-size="10" font-weight="500" fill="#a1a1aa" letter-spacing="0.8">GATEWAY STATUS</text>
  <text x="870" y="180" font-size="10" font-weight="500" fill="#a1a1aa" letter-spacing="0.8">TYPE</text>
  <text x="1040" y="180" font-size="10" font-weight="500" fill="#a1a1aa" letter-spacing="0.8">WARRANTY</text>

  <!-- ── Row 1: Selected (active) ── -->
  <rect x="61" y="193" width="1158" height="46" fill="#f4f4f5"/>
  <line x1="61" y1="239" x2="1219" y2="239" stroke="#e4e4e7" stroke-width="0.5"/>
  <!-- Checkbox checked -->
  <rect x="82" y="209" width="14" height="14" rx="3" fill="#18181b"/>
  <polyline points="85,216 89,220 93,212" fill="none" stroke="#ffffff" stroke-width="2" stroke-linecap="round" stroke-linejoin="round"/>
  <!-- Product name -->
  <text x="120" y="221" font-size="13" font-weight="500" fill="#09090b">Ultimate Digital Marketing Course 2026</text>
  <!-- Status badge: active -->
  <rect x="700" y="207" width="56" height="22" rx="11" fill="#dcfce7"/>
  <text x="728" y="222" text-anchor="middle" font-size="11" font-weight="500" fill="#16a34a">Active</text>
  <!-- Type -->
  <text x="870" y="221" font-size="12" fill="#71717a">One-time</text>
  <!-- Warranty -->
  <text x="1040" y="221" font-size="12" fill="#71717a">30 days</text>

  <!-- ── Row 2: Selected (active) ── -->
  <rect x="61" y="239" width="1158" height="46" fill="#ffffff"/>
  <line x1="61" y1="285" x2="1219" y2="285" stroke="#e4e4e7" stroke-width="0.5"/>
  <rect x="82" y="255" width="14" height="14" rx="3" fill="#18181b"/>
  <polyline points="85,262 89,266 93,258" fill="none" stroke="#ffffff" stroke-width="2" stroke-linecap="round" stroke-linejoin="round"/>
  <text x="120" y="267" font-size="13" font-weight="500" fill="#09090b">Coaching Mastery Program — Premium</text>
  <rect x="700" y="253" width="56" height="22" rx="11" fill="#dcfce7"/>
  <text x="728" y="268" text-anchor="middle" font-size="11" font-weight="500" fill="#16a34a">Active</text>
  <text x="870" y="267" font-size="12" fill="#71717a">Subscription</text>
  <text x="1040" y="267" font-size="12" fill="#71717a">7 days</text>

  <!-- ── Row 3: Selected (active) ── -->
  <rect x="61" y="285" width="1158" height="46" fill="#f4f4f5"/>
  <line x1="61" y1="331" x2="1219" y2="331" stroke="#e4e4e7" stroke-width="0.5"/>
  <rect x="82" y="301" width="14" height="14" rx="3" fill="#18181b"/>
  <polyline points="85,308 89,312 93,304" fill="none" stroke="#ffffff" stroke-width="2" stroke-linecap="round" stroke-linejoin="round"/>
  <text x="120" y="313" font-size="13" font-weight="500" fill="#09090b">Social Media Templates Pack</text>
  <rect x="700" y="299" width="56" height="22" rx="11" fill="#dcfce7"/>
  <text x="728" y="314" text-anchor="middle" font-size="11" font-weight="500" fill="#16a34a">Active</text>
  <text x="870" y="313" font-size="12" fill="#71717a">One-time</text>
  <text x="1040" y="313" font-size="12" fill="#71717a">—</text>

  <!-- ── Row 4: Unselected (inactive) ── -->
  <rect x="61" y="331" width="1158" height="46" fill="#ffffff"/>
  <line x1="61" y1="377" x2="1219" y2="377" stroke="#e4e4e7" stroke-width="0.5"/>
  <rect x="82" y="347" width="14" height="14" rx="3" fill="none" stroke="#d4d4d8" stroke-width="1.5"/>
  <text x="120" y="359" font-size="13" font-weight="500" fill="#09090b">Financial Freedom Ebook (Legacy)</text>
  <rect x="700" y="345" width="62" height="22" rx="11" fill="#f4f4f5"/>
  <text x="731" y="360" text-anchor="middle" font-size="11" font-weight="500" fill="#71717a">Inactive</text>
  <text x="870" y="359" font-size="12" fill="#71717a">One-time</text>
  <text x="1040" y="359" font-size="12" fill="#71717a">—</text>

  <!-- ── Row 5: Already imported (dimmed) ── -->
  <rect x="61" y="377" width="1158" height="46" fill="#ffffff"/>
  <line x1="61" y1="423" x2="1219" y2="423" stroke="#e4e4e7" stroke-width="0.5"/>
  <g opacity="0.45">
    <rect x="82" y="393" width="14" height="14" rx="3" fill="none" stroke="#d4d4d8" stroke-width="1.5"/>
    <text x="120" y="405" font-size="13" font-weight="500" fill="#09090b">Productivity Bootcamp — Q1</text>
    <!-- Already imported badge -->
    <rect x="365" y="393" width="108" height="20" rx="10" fill="#f4f4f5"/>
    <text x="419" y="407" text-anchor="middle" font-size="10" font-weight="500" fill="#71717a">Already imported</text>
    <rect x="700" y="391" width="56" height="22" rx="11" fill="#dcfce7"/>
    <text x="728" y="406" text-anchor="middle" font-size="11" font-weight="500" fill="#16a34a">Active</text>
    <text x="870" y="405" font-size="12" fill="#71717a">Subscription</text>
    <text x="1040" y="405" font-size="12" fill="#71717a">15 days</text>
  </g>

  <!-- ── Row 6: Already imported (dimmed) ── -->
  <rect x="61" y="423" width="1158" height="46" fill="#f4f4f5"/>
  <line x1="61" y1="469" x2="1219" y2="469" stroke="#e4e4e7" stroke-width="0.5"/>
  <g opacity="0.45">
    <rect x="82" y="439" width="14" height="14" rx="3" fill="none" stroke="#d4d4d8" stroke-width="1.5"/>
    <text x="120" y="451" font-size="13" font-weight="500" fill="#09090b">Instagram Growth Masterclass</text>
    <rect x="370" y="439" width="108" height="20" rx="10" fill="#f4f4f5"/>
    <text x="424" y="453" text-anchor="middle" font-size="10" font-weight="500" fill="#71717a">Already imported</text>
    <rect x="700" y="437" width="56" height="22" rx="11" fill="#dcfce7"/>
    <text x="728" y="452" text-anchor="middle" font-size="11" font-weight="500" fill="#16a34a">Active</text>
    <text x="870" y="451" font-size="12" fill="#71717a">One-time</text>
    <text x="1040" y="451" font-size="12" fill="#71717a">30 days</text>
  </g>

  <!-- ── Table Footer ── -->
  <rect x="61" y="469" width="1158" height="46" rx="0" fill="#ffffff"/>
  <line x1="61" y1="469" x2="1219" y2="469" stroke="#e4e4e7" stroke-width="1"/>
  <!-- "Selected 3 of 4" -->
  <text x="82" y="497" font-size="12" fill="#a1a1aa">Selected 3 of 4</text>
  <!-- Cancel button -->
  <rect x="1010" y="480" width="76" height="30" rx="6" fill="#ffffff" stroke="#e4e4e7" stroke-width="1"/>
  <text x="1048" y="499" text-anchor="middle" font-size="12" font-weight="500" fill="#09090b">Cancel</text>
  <!-- Import button -->
  <rect x="1098" y="480" width="104" height="30" rx="6" fill="#18181b"/>
  <text x="1150" y="499" text-anchor="middle" font-size="12" font-weight="600" fill="#ffffff">Import 3</text>

  <!-- ── Already imported table below ── -->
  <rect x="60" y="556" width="1160" height="36" rx="8" fill="#fafafa" stroke="#e4e4e7" stroke-width="1"/>
  <text x="82" y="579" font-size="10" font-weight="500" fill="#a1a1aa" letter-spacing="0.8">PRODUCT</text>
  <text x="620" y="579" font-size="10" font-weight="500" fill="#a1a1aa" letter-spacing="0.8">STATUS</text>
  <text x="770" y="579" font-size="10" font-weight="500" fill="#a1a1aa" letter-spacing="0.8">ID HOTMART</text>
  <text x="1020" y="579" font-size="10" font-weight="500" fill="#a1a1aa" letter-spacing="0.8">IMPORTED</text>

  <!-- Imported row 1 -->
  <rect x="60" y="592" width="1160" height="44" rx="0" fill="#ffffff" stroke="#e4e4e7" stroke-width="0.5"/>
  <!-- Package icon placeholder -->
  <rect x="82" y="602" width="24" height="24" rx="5" fill="#f4f4f5"/>
  <text x="94" y="619" text-anchor="middle" font-size="11" fill="#a1a1aa">&#9634;</text>
  <text x="118" y="619" font-size="13" font-weight="500" fill="#09090b">Productivity Bootcamp — Q1</text>
  <!-- Draft badge -->
  <rect x="620" y="606" width="46" height="20" rx="10" fill="#fef3c7"/>
  <text x="643" y="620" text-anchor="middle" font-size="11" font-weight="500" fill="#b45309">Draft</text>
  <!-- External ID code -->
  <rect x="770" y="606" width="130" height="20" rx="4" fill="#f4f4f5"/>
  <text x="835" y="620" text-anchor="middle" font-size="10" font-weight="400" fill="#71717a" font-family="monospace">prod_8hK2mXq9</text>
  <!-- Date -->
  <text x="1020" y="619" font-size="12" fill="#71717a">04/04/2026</text>

  <!-- Imported row 2 -->
  <rect x="60" y="636" width="1160" height="44" rx="0" fill="#fafafa" stroke="#e4e4e7" stroke-width="0.5"/>
  <rect x="82" y="646" width="24" height="24" rx="5" fill="#f4f4f5"/>
  <text x="94" y="663" text-anchor="middle" font-size="11" fill="#a1a1aa">&#9634;</text>
  <text x="118" y="663" font-size="13" font-weight="500" fill="#09090b">Instagram Growth Masterclass</text>
  <rect x="620" y="650" width="46" height="20" rx="10" fill="#fef3c7"/>
  <text x="643" y="664" text-anchor="middle" font-size="11" font-weight="500" fill="#b45309">Draft</text>
  <rect x="770" y="650" width="130" height="20" rx="4" fill="#f4f4f5"/>
  <text x="835" y="664" text-anchor="middle" font-size="10" font-weight="400" fill="#71717a" font-family="monospace">prod_3nR7pWz1</text>
  <text x="1020" y="663" font-size="12" fill="#71717a">04/04/2026</text>
</svg>