<svg xmlns="http://www.w3.org/2000/svg" width="1280" height="720" viewBox="0 0 1280 720" fill="none">
  <defs>
    <style>
      @import url('https://fonts.googleapis.com/css2?family=Inter:wght@400;500;600;700&amp;display=swap');
      text, tspan { font-family: 'Inter', system-ui, -apple-system, sans-serif; }
    </style>
  </defs>

  <!-- Background -->
  <rect width="1280" height="720" rx="12" fill="#ffffff"/>

  <!-- Page container -->
  <rect x="40" y="20" width="1200" height="680" rx="10" fill="#ffffff"/>

  <!-- ── Page title ── -->
  <text x="60" y="56" font-size="22" font-weight="700" fill="#09090b">Orders</text>

  <!-- ── Metrics cards row ── -->
  <!-- Card 1: Total orders -->
  <rect x="60" y="76" width="270" height="72" rx="8" fill="#ffffff" stroke="#e4e4e7" stroke-width="1"/>
  <text x="80" y="100" font-size="11" font-weight="500" fill="#a1a1aa">TOTAL ORDERS</text>
  <text x="80" y="130" font-size="24" font-weight="700" fill="#09090b">1,247</text>
  <text x="160" y="130" font-size="12" font-weight="500" fill="#16a34a">+12.5%</text>
  <!-- Card 2: Revenue today -->
  <rect x="345" y="76" width="270" height="72" rx="8" fill="#ffffff" stroke="#e4e4e7" stroke-width="1"/>
  <text x="365" y="100" font-size="11" font-weight="500" fill="#a1a1aa">REVENUE TODAY</text>
  <text x="365" y="130" font-size="24" font-weight="700" fill="#09090b">R$ 4,892</text>
  <text x="490" y="130" font-size="12" font-weight="500" fill="#16a34a">+8.3%</text>
  <!-- Card 3: Revenue total -->
  <rect x="630" y="76" width="270" height="72" rx="8" fill="#ffffff" stroke="#e4e4e7" stroke-width="1"/>
  <text x="650" y="100" font-size="11" font-weight="500" fill="#a1a1aa">TOTAL REVENUE</text>
  <text x="650" y="130" font-size="24" font-weight="700" fill="#09090b">R$ 187,430</text>

  <!-- ── Filter bar ── -->
  <rect x="60" y="168" width="1140" height="48" rx="0" fill="#ffffff"/>

  <!-- Search input -->
  <rect x="60" y="174" width="260" height="36" rx="10" fill="#ffffff" stroke="#e4e4e7" stroke-width="1"/>
  <!-- Search icon -->
  <circle cx="80" cy="192" r="6" fill="none" stroke="#a1a1aa" stroke-width="1.3"/>
  <line x1="84.5" y1="196.5" x2="88" y2="200" stroke="#a1a1aa" stroke-width="1.3" stroke-linecap="round"/>
  <text x="96" y="196" font-size="12" fill="#a1a1aa">Search by customer or product...</text>

  <!-- Status multi-select (with selections shown) -->
  <rect x="332" y="174" width="160" height="36" rx="10" fill="#ffffff" stroke="#3b82f6" stroke-width="1.5"/>
  <text x="348" y="196" font-size="12" font-weight="500" fill="#09090b">Approved, Pending</text>
  <!-- Chevron icon -->
  <polyline points="472,188 478,194 484,188" fill="none" stroke="#71717a" stroke-width="1.3" stroke-linecap="round" stroke-linejoin="round"/>

  <!-- Status dropdown (open) -->
  <rect x="332" y="214" width="200" height="210" rx="10" fill="#ffffff" stroke="#e4e4e7" stroke-width="1"/>
  <!-- shadow -->
  <rect x="334" y="216" width="200" height="210" rx="10" fill="#00000008"/>
  <rect x="332" y="214" width="200" height="210" rx="10" fill="#ffffff" stroke="#e4e4e7" stroke-width="1"/>

  <!-- Option: Pending (checked) -->
  <rect x="344" y="224" width="176" height="28" rx="6" fill="#f4f4f5"/>
  <rect x="354" y="231" width="14" height="14" rx="3" fill="#18181b"/>
  <polyline points="357,238 361,242 365,234" fill="none" stroke="#ffffff" stroke-width="2" stroke-linecap="round" stroke-linejoin="round"/>
  <text x="376" y="242" font-size="12" font-weight="400" fill="#09090b">Pending</text>

  <!-- Option: Approved (checked) -->
  <rect x="344" y="254" width="176" height="28" rx="6" fill="#f4f4f5"/>
  <rect x="354" y="261" width="14" height="14" rx="3" fill="#18181b"/>
  <polyline points="357,268 361,272 365,264" fill="none" stroke="#ffffff" stroke-width="2" stroke-linecap="round" stroke-linejoin="round"/>
  <text x="376" y="272" font-size="12" font-weight="400" fill="#09090b">Approved</text>

  <!-- Option: Completed (unchecked) -->
  <rect x="344" y="284" width="176" height="28" rx="6" fill="transparent"/>
  <rect x="354" y="291" width="14" height="14" rx="3" fill="none" stroke="#d4d4d8" stroke-width="1.5"/>
  <text x="376" y="302" font-size="12" font-weight="400" fill="#09090b">Completed</text>

  <!-- Option: Refunded (unchecked) -->
  <rect x="344" y="314" width="176" height="28" rx="6" fill="transparent"/>
  <rect x="354" y="321" width="14" height="14" rx="3" fill="none" stroke="#d4d4d8" stroke-width="1.5"/>
  <text x="376" y="332" font-size="12" font-weight="400" fill="#09090b">Refunded</text>

  <!-- Option: Cancelled (unchecked) -->
  <rect x="344" y="344" width="176" height="28" rx="6" fill="transparent"/>
  <rect x="354" y="351" width="14" height="14" rx="3" fill="none" stroke="#d4d4d8" stroke-width="1.5"/>
  <text x="376" y="362" font-size="12" font-weight="400" fill="#09090b">Cancelled</text>

  <!-- Option: Disputed (unchecked) -->
  <rect x="344" y="374" width="176" height="28" rx="6" fill="transparent"/>
  <rect x="354" y="381" width="14" height="14" rx="3" fill="none" stroke="#d4d4d8" stroke-width="1.5"/>
  <text x="376" y="392" font-size="12" font-weight="400" fill="#09090b">Disputed</text>

  <!-- Product multi-select -->
  <rect x="504" y="174" width="190" height="36" rx="10" fill="#ffffff" stroke="#e4e4e7" stroke-width="1"/>
  <text x="520" y="196" font-size="12" font-weight="500" fill="#a1a1aa">Product</text>
  <polyline points="670,188 676,194 682,188" fill="none" stroke="#71717a" stroke-width="1.3" stroke-linecap="round" stroke-linejoin="round"/>

  <!-- Source multi-select (with selection) -->
  <rect x="706" y="174" width="160" height="36" rx="10" fill="#ffffff" stroke="#e4e4e7" stroke-width="1"/>
  <text x="722" y="196" font-size="12" font-weight="500" fill="#09090b">External gateway</text>
  <polyline points="842,188 848,194 854,188" fill="none" stroke="#71717a" stroke-width="1.3" stroke-linecap="round" stroke-linejoin="round"/>

  <!-- Date range picker -->
  <rect x="878" y="174" width="210" height="36" rx="10" fill="#ffffff" stroke="#e4e4e7" stroke-width="1"/>
  <!-- Calendar icon -->
  <rect x="894" y="184" width="14" height="13" rx="2" fill="none" stroke="#71717a" stroke-width="1.2"/>
  <line x1="898" y1="182" x2="898" y2="185" stroke="#71717a" stroke-width="1.2" stroke-linecap="round"/>
  <line x1="904" y1="182" x2="904" y2="185" stroke="#71717a" stroke-width="1.2" stroke-linecap="round"/>
  <line x1="894" y1="190" x2="908" y2="190" stroke="#71717a" stroke-width="0.8"/>
  <text x="916" y="196" font-size="12" font-weight="500" fill="#09090b">01/04 — 04/04/2026</text>
  <!-- Clear X -->
  <circle cx="1072" cy="192" r="7" fill="#f4f4f5"/>
  <line x1="1069" y1="189" x2="1075" y2="195" stroke="#71717a" stroke-width="1.3" stroke-linecap="round"/>
  <line x1="1075" y1="189" x2="1069" y2="195" stroke="#71717a" stroke-width="1.3" stroke-linecap="round"/>

  <!-- Clear all filters button -->
  <rect x="1100" y="174" width="100" height="36" rx="10" fill="#ffffff" stroke="#e4e4e7" stroke-width="1"/>
  <text x="1150" y="196" text-anchor="middle" font-size="12" font-weight="500" fill="#71717a">Clear filters</text>

  <!-- ── Orders Table ── -->
  <rect x="60" y="440" width="1140" height="260" rx="8" fill="#ffffff" stroke="#e4e4e7" stroke-width="1"/>

  <!-- Table Header -->
  <rect x="61" y="441" width="1138" height="36" rx="7" fill="#fafafa"/>
  <text x="82" y="464" font-size="10" font-weight="500" fill="#a1a1aa" letter-spacing="0.8">ORDER</text>
  <text x="220" y="464" font-size="10" font-weight="500" fill="#a1a1aa" letter-spacing="0.8">CUSTOMER</text>
  <text x="460" y="464" font-size="10" font-weight="500" fill="#a1a1aa" letter-spacing="0.8">PRODUCT</text>
  <text x="720" y="464" font-size="10" font-weight="500" fill="#a1a1aa" letter-spacing="0.8">STATUS</text>
  <text x="850" y="464" font-size="10" font-weight="500" fill="#a1a1aa" letter-spacing="0.8">SOURCE</text>
  <text x="990" y="464" font-size="10" font-weight="500" fill="#a1a1aa" letter-spacing="0.8">AMOUNT</text>
  <text x="1100" y="464" font-size="10" font-weight="500" fill="#a1a1aa" letter-spacing="0.8">DATE</text>

  <!-- Row 1 -->
  <line x1="61" y1="477" x2="1199" y2="477" stroke="#e4e4e7" stroke-width="0.5"/>
  <text x="82" y="501" font-size="12" font-weight="500" fill="#3b82f6">#ORD-1247</text>
  <text x="220" y="501" font-size="12" font-weight="500" fill="#09090b">Sarah Johnson</text>
  <text x="220" y="515" font-size="11" fill="#a1a1aa">sarah.j@email.com</text>
  <text x="460" y="501" font-size="12" fill="#09090b">Ultimate Digital Marketing...</text>
  <!-- Approved badge -->
  <rect x="720" y="490" width="70" height="22" rx="11" fill="#dcfce7"/>
  <text x="755" y="505" text-anchor="middle" font-size="11" font-weight="500" fill="#16a34a">Approved</text>
  <!-- Source badge -->
  <rect x="850" y="490" width="90" height="22" rx="11" fill="#eff6ff"/>
  <text x="895" y="505" text-anchor="middle" font-size="11" font-weight="500" fill="#3b82f6">Hotmart</text>
  <text x="990" y="501" font-size="12" font-weight="600" fill="#09090b">R$ 297,00</text>
  <text x="1100" y="501" font-size="12" fill="#71717a">04/04/2026</text>

  <!-- Row 2 -->
  <line x1="61" y1="527" x2="1199" y2="527" stroke="#e4e4e7" stroke-width="0.5"/>
  <rect x="61" y="527" width="1138" height="50" fill="#fafafa"/>
  <text x="82" y="556" font-size="12" font-weight="500" fill="#3b82f6">#ORD-1246</text>
  <text x="220" y="556" font-size="12" font-weight="500" fill="#09090b">Michael Chen</text>
  <text x="220" y="570" font-size="11" fill="#a1a1aa">m.chen@company.com</text>
  <text x="460" y="556" font-size="12" fill="#09090b">Coaching Mastery Program</text>
  <!-- Pending badge -->
  <rect x="720" y="545" width="62" height="22" rx="11" fill="#fef3c7"/>
  <text x="751" y="560" text-anchor="middle" font-size="11" font-weight="500" fill="#b45309">Pending</text>
  <rect x="850" y="545" width="90" height="22" rx="11" fill="#eff6ff"/>
  <text x="895" y="560" text-anchor="middle" font-size="11" font-weight="500" fill="#3b82f6">Kiwify</text>
  <text x="990" y="556" font-size="12" font-weight="600" fill="#09090b">R$ 497,00</text>
  <text x="1100" y="556" font-size="12" fill="#71717a">04/04/2026</text>

  <!-- Row 3 -->
  <line x1="61" y1="577" x2="1199" y2="577" stroke="#e4e4e7" stroke-width="0.5"/>
  <text x="82" y="606" font-size="12" font-weight="500" fill="#3b82f6">#ORD-1245</text>
  <text x="220" y="606" font-size="12" font-weight="500" fill="#09090b">Emma Davis</text>
  <text x="220" y="620" font-size="11" fill="#a1a1aa">emma.d@gmail.com</text>
  <text x="460" y="606" font-size="12" fill="#09090b">Social Media Templates Pack</text>
  <!-- Approved badge -->
  <rect x="720" y="595" width="70" height="22" rx="11" fill="#dcfce7"/>
  <text x="755" y="610" text-anchor="middle" font-size="11" font-weight="500" fill="#16a34a">Approved</text>
  <rect x="850" y="595" width="90" height="22" rx="11" fill="#eff6ff"/>
  <text x="895" y="610" text-anchor="middle" font-size="11" font-weight="500" fill="#3b82f6">Hotmart</text>
  <text x="990" y="606" font-size="12" font-weight="600" fill="#09090b">R$ 147,00</text>
  <text x="1100" y="606" font-size="12" fill="#71717a">03/04/2026</text>

  <!-- Row 4 -->
  <line x1="61" y1="627" x2="1199" y2="627" stroke="#e4e4e7" stroke-width="0.5"/>
  <rect x="61" y="627" width="1138" height="50" fill="#fafafa"/>
  <text x="82" y="656" font-size="12" font-weight="500" fill="#3b82f6">#ORD-1244</text>
  <text x="220" y="656" font-size="12" font-weight="500" fill="#09090b">James Wilson</text>
  <text x="220" y="670" font-size="11" fill="#a1a1aa">james.w@outlook.com</text>
  <text x="460" y="656" font-size="12" fill="#09090b">Financial Freedom Ebook</text>
  <!-- Pending badge -->
  <rect x="720" y="645" width="62" height="22" rx="11" fill="#fef3c7"/>
  <text x="751" y="660" text-anchor="middle" font-size="11" font-weight="500" fill="#b45309">Pending</text>
  <rect x="850" y="645" width="90" height="22" rx="11" fill="#f3e8ff"/>
  <text x="895" y="660" text-anchor="middle" font-size="11" font-weight="500" fill="#7c3aed">Hubfy</text>
  <text x="990" y="656" font-size="12" font-weight="600" fill="#09090b">R$ 67,00</text>
  <text x="1100" y="656" font-size="12" fill="#71717a">02/04/2026</text>
</svg>