<svg width="400" height="400" viewBox="0 0 400 400" fill="none" xmlns="http://www.w3.org/2000/svg">
<g clip-path="url(#clip0_253_9)">
<rect width="400" height="400" fill="#645CFF"/>
<g clip-path="url(#clip1_253_9)">
<path d="M-16 -28H417V428H-16V-28Z" fill="white"/>
<path d="M131.211 50.361C138.242 50.3172 145.82 51.5425 152.586 53.433C158.153 54.9835 163.51 57.2072 168.539 60.0545C177.147 64.8915 188.437 72.613 196.98 78.1008C216.195 90.3045 235.32 102.648 254.355 115.131L300.702 144.898C307.95 149.583 315.257 153.493 322.057 158.851C328.34 163.866 333.617 170.025 337.61 177.002C345.187 190.606 347.06 206.659 342.817 221.642C339.482 233.37 333.412 242.243 324.455 250.383C318.212 256.055 311.55 259.413 304.262 263.505L286.942 273.283L232.861 303.712C216.795 312.957 200.611 321.997 184.314 330.83C166.281 340.81 157.926 347.767 136.48 348.965C101.122 350.94 65.5161 326.483 63.8106 289.285C63.5784 284.218 63.7149 279.062 63.7139 274.025L63.6976 249.062L63.7046 171.43L63.7064 130.061C63.7001 122.626 63.2986 109.861 64.5736 102.945C66.7036 91.841 71.8426 81.5352 79.4296 73.152C92.4374 58.9745 112.192 51.165 131.211 50.361Z" fill="#2E2E2E"/>
<path d="M130.132 67.1057C138.825 66.6052 147.512 68.1959 155.463 71.7447C161.574 74.4587 170.258 80.3647 176.189 84.1562L209.483 105.574L263.493 140.44C273.27 146.733 285.148 153.9 294.418 160.503C289.163 160.347 283.188 160.285 277.93 160.464C263.51 160.952 246.465 157.63 235.49 169.197C230.21 174.837 227.372 182.334 227.591 190.056C228.308 213.502 246.178 234.735 269.743 238.435C275.995 239.418 283.29 238.975 289.678 239.025C297.128 239.083 304.748 239.14 312.185 238.873C307.688 243.063 300.158 246.903 294.635 250.008L275.978 260.495L202.649 301.82L174.705 317.53C167.7 321.488 157.343 327.64 149.957 330.085C143.865 332.065 137.48 332.995 131.077 332.83C117.286 332.545 102.637 326.59 92.834 316.728C78.2628 302.07 80.2218 286.26 80.2178 267.388C80.1663 257.92 80.2 248.453 80.3188 238.985L111.679 239.02C117.527 239.02 124.306 239.178 130.065 238.808C143.06 237.985 155.209 231.113 163.546 221.265C175.972 206.588 182.352 180.592 164.998 166.846C155.862 159.609 148.061 160.306 137.231 160.31L116.356 160.314L93.223 160.304C89.5218 160.303 83.799 160.133 80.2395 160.47L80.2375 128.74C80.2298 122.614 79.859 111.132 81.02 105.592C82.5768 97.9609 86.087 90.8642 91.2075 84.9954C101.212 73.5264 115.254 68.1499 130.132 67.1057Z" fill="white"/>
<path d="M134.724 84.1021C145.968 83.3929 165.646 84.5079 163.359 100.557C162.356 106.951 153.652 111.126 148.382 113.921C136.054 120.458 124.688 127.59 113.03 135.26C109.981 137.217 105.912 140.102 102.234 140.388C96.1812 140.86 89.8405 135.772 89.342 129.626C89.0592 126.173 90.3835 122.951 91.3757 119.74C97.4372 100.128 113.937 85.7921 134.724 84.1021Z" fill="#2E2E2E"/>
<path d="M190.757 229.592C194.71 229.402 199.82 229.22 203.736 229.45C214.474 230.085 214.902 239.16 205.528 243.402C206.766 245.605 208.272 248.205 210.617 249.457C219.309 254.105 223.864 239.09 232.384 244.567C234.783 246.11 235.548 248.357 236.175 250.957C235.955 251.795 235.673 252.615 235.335 253.41C233.352 258.06 227.004 261.907 222.504 263.65C216.344 266.035 210.358 265.672 204.384 263.025C202.528 262.105 200.315 260.795 198.472 259.767C194.882 262.11 193.044 262.907 189.015 264.462C180.884 267.597 163.377 260.885 161.405 251.99C161.024 250.285 161.339 248.5 162.279 247.027C163.828 244.602 166.047 243.775 168.673 243.147C175.372 244.512 180.112 253.49 187.372 249.042C189.117 247.975 190.344 245.687 191.161 243.855C188.235 240.337 182.202 238.072 186.397 232.16C187.623 230.43 188.721 229.93 190.757 229.592Z" fill="#2E2E2E"/>
<path d="M136.631 175.872C145.971 175.502 153.852 182.752 154.26 192.089C154.669 201.427 147.451 209.337 138.115 209.784C128.725 210.234 120.759 202.965 120.348 193.573C119.937 184.181 127.238 176.244 136.631 175.872Z" fill="white"/>
<path d="M259.852 174.814C269.147 173.703 277.582 180.343 278.685 189.64C279.787 198.936 273.14 207.365 263.842 208.459C254.557 209.553 246.14 202.916 245.037 193.63C243.937 184.345 250.567 175.923 259.852 174.814Z" fill="white"/>
<path d="M273.632 84.101C281.887 82.955 291.212 85.2417 298.635 88.5565C312.96 94.9957 322.317 106.991 326.865 121.851C329.345 129.952 328.585 136.214 319.82 139.861C316.48 141.252 313.337 140.205 310.19 138.738C305.455 136.409 296.697 129.99 291.572 126.937C285.017 123.048 278.412 119.248 271.755 115.539C267.357 113.06 262.915 110.73 258.83 107.776C253.127 103.652 252.057 95.921 256.59 90.51C260.475 85.872 267.927 84.5822 273.632 84.101Z" fill="#2E2E2E"/>
</g>
</g>
<defs>
<clipPath id="clip0_253_9">
<rect width="400" height="400" fill="white"/>
</clipPath>
<clipPath id="clip1_253_9">
<rect width="433" height="456" fill="white" transform="translate(-16 -28)"/>
</clipPath>
</defs>
</svg>
