<svg width="24" height="24" viewBox="0 0 24 24" fill="none" xmlns="http://www.w3.org/2000/svg">
<path d="M11.6298 1.00867L11.6626 1.00741C14.5165 0.902214 17.2586 1.92089 19.3829 3.84233C21.0669 5.36547 22.2311 7.37461 22.7259 9.59324C22.7965 9.91048 22.8822 10.2518 22.929 10.5759C22.9476 10.9093 22.9823 11.3539 22.9938 11.6857C23.0905 14.5549 22.0529 17.3459 20.1081 19.4477C18.0763 21.6294 15.4195 22.8894 12.4433 22.9877C9.61228 23.1226 6.83993 22.1458 4.71182 20.2636C3.52725 19.1997 2.60976 17.9672 1.95645 16.5098C-0.0219131 12.0964 1.13703 6.81462 4.80204 3.66175C6.28342 2.39694 8.0658 1.5402 9.97498 1.17524C10.6161 1.05435 10.9867 1.04257 11.6298 1.00867ZM13.6397 14.5214C14.0939 14.2524 14.5506 13.9511 14.9991 13.676C15.5175 13.3582 16.1191 13.052 16.5758 12.6631C16.8572 12.4235 16.8641 11.7842 16.671 11.4902C16.5281 11.2727 16.4112 11.1824 16.1923 11.0415C15.781 10.7564 15.3199 10.5246 14.8987 10.2651C13.9014 9.63958 12.8991 9.02227 11.8917 8.41324C11.487 8.16392 10.2068 7.31205 9.8599 7.22768C9.72717 7.19539 9.59814 7.19145 9.46255 7.19722C9.29843 7.22423 9.20266 7.23648 9.0619 7.33413C8.85629 7.47679 8.61014 7.7539 8.60115 8.01688C8.58034 8.62569 8.59425 9.24104 8.59466 9.85066L8.59434 13.5397L8.59367 15.1719C8.58866 15.7984 8.44546 16.2876 9.06518 16.6739C9.66419 17.0473 10.2162 16.6407 10.7221 16.3016C11.6565 15.6752 12.7167 15.1531 13.6397 14.5214Z" fill="currentColor"/>
</svg>
