<svg xmlns="http://www.w3.org/2000/svg" viewBox="0 0 120 120" fill="none">
  <rect width="120" height="120" rx="24" fill="#1AB7EA"/>
  <path d="M95.8 42.4c-.4 8.6-6.4 20.4-18 35.4C65.5 93.5 55.2 101 46.8 101c-5.2 0-9.6-4.8-13.2-14.4l-7.2-26.4C23.6 50.6 20.6 45.8 17.4 45.8c-.6 0-2.8 1.3-6.6 3.9L7 45.1c4.2-3.7 8.3-7.4 12.3-11.1 5.6-4.8 9.7-7.4 12.5-7.6 6.6-.6 10.6 3.9 12.2 13.4 1.7 10.3 2.9 16.7 3.6 19.2 2 9.1 4.2 13.6 6.6 13.6 1.9 0 4.7-3 8.4-8.9 3.7-5.9 5.7-10.4 6-13.5.5-5.1-1.5-7.7-6-7.7-2.1 0-4.3.5-6.6 1.5 4.4-14.3 12.7-21.3 25-20.9 9.1.3 13.4 6.2 12.8 17.3z" fill="white"/>
</svg>
